<?xml version="1.0" encoding="utf-8"?>
<!-- Generator: Adobe Illustrator 22.0.1, SVG Export Plug-In . SVG Version: 6.00 Build 0)  -->
<svg version="1.1" id="Layer_1" xmlns="http://www.w3.org/2000/svg" xmlns:xlink="http://www.w3.org/1999/xlink" x="0px" y="0px"
	 viewBox="0 0 3210.5 2392.3" style="enable-background:new 0 0 3210.5 2392.3;" xml:space="preserve">
<style type="text/css">
	.st0{fill:#05060B;}
	.st1{fill:#938C8C;}
	.st2{fill:#2B2A30;}
	.st3{fill:#28292E;}
	.st4{fill:#F8F7FD;}
	.st5{fill:#0E1678;}
	.st6{opacity:0.32;fill:#2D2B2B;}
	.st7{fill:#191818;}
	.st8{opacity:0.32;fill:#191818;}
	.st9{fill:#601B1E;}
	.st10{fill:#C01D18;}
	.st11{fill:#DC2E2F;}
	.st12{fill:#B91714;}
	.st13{fill:#8D100A;}
	.st14{fill:#FBFBFB;}
	.st15{fill:#303133;}
	.st16{fill:#49473C;}
	.st17{fill:none;stroke:#000000;stroke-miterlimit:10;}
	.st18{fill:#E7EBEA;}
	.st19{fill:#F9F8FD;}
	.st20{fill:#010101;}
	.st21{fill:#232426;}
	.st22{fill:#F4C29A;}
	.st23{fill:#392B22;}
	.st24{fill:#E0A379;}
	.st25{opacity:0.36;}
	.st26{fill:#606060;}
	.st27{fill:#7A0905;}
	.st28{fill:#2D2B2B;}
	.st29{fill:#776D6D;}
	.st30{fill:#DDA680;}
</style>
<path class="st0" d="M3074.8,518.9c0,0,11.5,23.6,29.5,18c23.4-7.2,88.1-137.9,88.1-137.9l-112.2,36.3L3074.8,518.9z"/>
<path class="st1" d="M2843.4,2189.8c-0.9-3.5-1.9-7.5-3.1-12.2l-16.7-52.6l-162.6-34.6c0,0,3.3,27.9,6.6,47.3
	c1.4,7.9,2.7,14.4,3.8,17c3.9,8.9,35.1,23.6,88.4,44.5c53.3,20.9,81.7,18.4,84.6,11.5C2846.6,2205.6,2845.7,2199.5,2843.4,2189.8z
	 M2754.9,2136.7c14.8,0.6,32,30.5,16.9,31.6c-20.6,1.6-25,0.3-45.1-6.1c-10.9-3.5-25.9-5.6-25.7-20.3
	C2701.2,2121.7,2740.1,2136.1,2754.9,2136.7z"/>
<g>
	<path class="st2" d="M3210.4,391.7c0-19.6-15.1-27.7-26.5-48.1c-4.2-7.5-11.4-13.8-20.3-19.1c-15.2-9.1-35.1-15.2-52.3-19.4
		c-27.2-6.7-56.7-18.2-61.2-25c-4.5-6.8-36.3-15.9-36.3-15.9s-20.4-15.9-34-21.1c-8-3.1-28.4-1.7-48-1.2c-14,0.4-27.6,0.4-36.1-1.9
		c0,0-34.9,88.3-38.7,134.6c-1,12.4,0.2,21.8,4.9,25.7c0.5,0.4,1.1,0.8,1.7,1.1c26.6,13,176.3,90.9,176.3,90.9l8.3-2.1l8.5-2.2
		l11.5-2.9c0,0,27.2,24.1,49.9,32.4c22.5,8.2-35.5-68.5-36.3-69.5c0.6,0.3,27.5,13.9,49.9,37.5c22.7,23.9,26.7,12.6,30.9,6.9
		c16.1-21.5-9.6-35.5-28.8-59.6c15.1,17.8,40.8,45.8,45.5,37.9c6.8-11.3-31.8-91.1-9.1-63.2c22.7,27.9,23.7,40.4,32.7,17.7
		c2-5.1,0,0-2.7-6.8C3202.5,414.7,3210.4,408.7,3210.4,391.7z M3172.5,366.1c10.9-0.1,21.8,34,25.7,47.6
		C3187.4,391.3,3162.7,366.2,3172.5,366.1z"/>
</g>
<path class="st1" d="M1323.3,2185.1c3.3-10.8,41.8-29.6,41.8-29.6s-18.6-28.8-74.7-24.2c-56.1,4.6-66.8,0.3-91.1-4.8
	c-24.3-5.1-57.7-5-57.7-5l6,31.8c-13.6,56.3-48,61.2-47.6,74.4c0.2,5.5,4,20.9,11,30.5c3.5,4.7,7.7,8,12.6,8
	c14.9,0,92.1-6.4,122.4-11.3c39.8-6.4,70.4-3,86.9-23.4c0.2-0.2,0.3-0.4,0.4-0.6C1347.4,2212.3,1319.4,2198.2,1323.3,2185.1z
	 M1221.1,2164.2c0,0,10.4-11.3,46.7-19.2c36.3-7.9,34,1.1,38.3,19.2c4.3,18.1-8.1,29.7-33.7,35.2c-32.2,6.9-61.2,10.2-70.3,3.7
	C1193,2196.5,1204.7,2174.3,1221.1,2164.2z"/>
<path class="st1" d="M122.5,2131.7l-24.9,23.8c0,0-16.4,14.6-33.3,27.2l0,0c-9.7,7.3-19.7,13.8-26.8,16.6c-10.4,4-37.4-37-37.4-54.7
	c0-4.4,2.8-10.8,6.9-17.8c1.4-2.5,3.1-5,4.8-7.6c13.1-19.6,32.5-41,32.5-41l23.7,11.5c0,0-14.1-6.5-27.7,21.1
	c-13.6,27.7,4.7,33.7,16,33.7c11.3,0,36.8-23.1,36.8-23.1L122.5,2131.7z"/>
<path class="st3" d="M2703.1,1842.5c15.9,93,11.3,83.9,49.9,122.5c38.6,38.6,88,53.9,99.8,64.6c18.6,17,29.9,58.7,9,77.4
	c-17.9,15.9-30.3,43.1-78.4,26.4c-71.1-24.6-82.5-25.5-100.6-34.6c-18.1-9.1-56.7-22.7-61.2-49.9c-4.5-27.2-8.3-42-21.5-86.2
	c-11-36.6-7.9-59-7.9-59L2703.1,1842.5z"/>
<path class="st4" d="M1943.4,1517.2c-0.8,13.1-3.3,28.4-6.9,44.2c-2.4,10.5-5.3,21.2-8.5,31.7c0,0,0,0.1-0.1,0.2
	c-4.8,15.8-10.3,31-15.8,44c0,0,0,0,0,0c-3.3,7.8-6.7,14.9-9.9,20.9c-0.8,1.4-1.7,2.9-2.9,4.5c-25.7,35.2-143.7,114.8-184.9,130
	c-43.1,15.9-97.5,88.4-165.5,111.1c-49.4,16.5-156.3,71.8-211,100.9c-20.6,11-33.9,18.2-33.9,18.2l-41.9-141.7
	c0,0,48.5-46.3,107.3-101.6c85.3-80.3,192.3-179.6,203.5-183.8c19.1-7.1,75.8-36.6,96.2-88.8c5.4-13.8,10.8-31.6,15.8-50.3
	c14-51.9,25-110.7,25-110.7l72.1,52.9l159.2,116.7L1943.4,1517.2z"/>
<path class="st5" d="M1594.5,1690.6c26,42.3,51.9,79.4,85.9,90.7c34,11.3,46.9,5.8,46.9,5.8l-114.1,80.8c0,0-62.9,16.1-102.8-43.5
	c-45.6-68-68.9-114-68.9-114s46.9-44.7,63.2-58.9c16.5-14.4,68.2-55.8,68.2-55.8S1581.8,1669.8,1594.5,1690.6z"/>
<path class="st6" d="M1933.1,1595.7c0,0-8.6,17.3-20.9,41.6c0,0,0,0,0,0c-4,7.8-8.3,16.4-12.8,25.4
	c-25.7,35.2-150.5,102.7-184.9,130c-41.8,33.1-97.5,88.4-165.5,111.1c-49.4,16.5-156.3,71.8-211,100.9l1.7-14.7
	c0,0,198-113.4,241-120.9c43-7.5,181.5-128.5,228.3-155.2c46.7-26.7,91.6-79.9,93.6-132.9l25.7,12.3L1933.1,1595.7z"/>
<path class="st6" d="M1941.1,1515.5l-4.6,45.9l-3.4,34.3c-0.8-0.4-2.5-1.3-5-2.6c-13.8-7-51.5-25.3-89.4-33.4
	c-44.9-9.6-152.1-0.5-180.3,0c-28.2,0.5-49.5,40.4-55.7,60.7c-6.2,20.3,12.5,49.8-8.2,70.2c-20.7,20.4-2.8-28.4-34.3-27.8
	c-31.5,0.6-43.6,13.4-92.4,51.1c-48.8,37.7-53.1,128.7-53.1,128.7l-49.6,27.3l4.1-90.4c85.3-80.3,192.3-179.6,203.5-183.8
	c19.1-7.1,75.8-36.6,96.2-88.8c5.4-13.8,10.8-31.6,15.8-50.3l97.1-57.8L1941.1,1515.5z"/>
<path class="st4" d="M2733.2,1860.7c0,0-21.1,36.3-73.2,52.1c-20.6,6.3-35.5,10.5-46,13.3c-16.2,4.3-22,5.3-22,5.3
	s-34-50.3-43.1-77.5c-8.3-25-7.1-44.3-28-80.8c-1.8-3.2-3.8-6.5-6-9.9c-8.3-13.1-16.1-30.3-23.3-49c-4.8-12.4-9.3-25.4-13.5-38.3v0
	c-5.7-17.5-10.7-34.7-14.9-49.7c-3.4-12-6.2-22.4-8.4-30.5c-10.2-36.6-51-54.6-60.1-78.5c-9.1-23.9-47.6-39.7-68-98.7
	c-2.4-6.9-4.6-13.3-6.6-19.2c-15-44.2-17.4-60.4,6.6-74.1c2.9-1.7,7.2-3.8,12.6-6.2c36.7-16.7,122.4-48.5,150.6-58.9
	c5.8-2.1,9.2-3.4,9.2-3.4c3.1,2.8,6.2,5.7,9.4,8.6c17.3,16.1,35.1,33.3,52,50.8c42.6,44.1,79.8,89.9,90.6,122.5
	c11.9,35.8,19.9,93.4,27.5,135.6c2.6,14.3,5.1,26.8,7.6,36.1c1.8,6.6,4.5,18.9,7.7,34.6c2.3,11.6,4.9,25,7.7,39.4
	c2.2,11.8,4.6,24.2,6.9,36.7C2720.8,1788.7,2733.2,1860.7,2733.2,1860.7z"/>
<path class="st5" d="M2708.3,1721.1c-5.5,8.2-17.7,19.1-43.8,35.3c-60.4,37.4-112.5,28.8-143.7,16.7c-1.8-3.2-3.8-6.5-6-9.9
	c-8.3-13.1-16.1-30.3-23.3-49c-4.8-12.4-9.3-25.4-13.5-38.3v0c-5.7-17.5-10.7-34.7-14.9-49.7c60.9,23.9,99.5,8.7,128.8,0.4
	c34-9.6,68.8-38.4,86.4-52.2c2.6,14.3,5.1,26.8,7.6,36.1c1.8,6.6,3.4,13.4,6.6,29.1c2.3,11.6,6.1,30.5,8.8,44.9
	C2703.7,1696.2,2706,1708.6,2708.3,1721.1z"/>
<path class="st6" d="M2614,1926.1c-16.2,4.3-22,5.3-22,5.3s-34-50.3-43.1-77.5c-8.3-25-7.1-44.3-28-80.8c-1.8-3.2-3.8-6.5-6-9.9
	c-8.3-13.1-16.1-30.3-23.3-49c-4.8-12.4-9.3-25.4-13.5-38.3v0c-5.7-17.5-10.7-34.7-14.9-49.7c-3.4-12-6.2-22.4-8.4-30.5
	c-10.2-36.6-51-54.6-60.1-78.5c-9.1-23.9-47.6-39.7-68-98.7c-2.4-6.9-4.6-13.3-6.6-19.2c4.8-22.2,11.6-52,19.1-80.3
	c36.7-16.7,122.4-48.5,150.6-58.9c6.2,1.8,12.4,3.5,18.6,5.3c47.1,13.4,65.5,14.8,65.5,14.8l-2.2,42.6c-3.5-2.6-7.3-4.8-11.3-6.6
	c-38.1-17.2-98.4-2.1-130.3,29.7c-35.3,35.2-36.5,90.7-39.3,102.1c-2.8,11.3,19,19.8,42.1,51.3c23.1,31.5,44.6-8.7,66.2-0.5
	c21.5,8.2-37.7,20.6-31.9,46.7c5.8,26.1,43,8.5,61.4,28.8c18.3,20.3-17.5-13.2-29.5,23.2c-12,36.4,10.2,78.3,29.5,116.3
	c19.3,38,28.9,57.8,39.4,85.3c10.5,27.5,24.1,104.6,24.1,104.6L2614,1926.1z"/>
<path class="st3" d="M147.4,1876.5c-29.5,52.2-74.8,108.9-81.6,113.4s-36.3,9.1-36.3,40.8c0,31.7,24.9,68,40.8,77.1
	c15.9,9.1,31.7,40.8,59,36.3c27.2-4.5,43.1-43.1,47.6-49.9c4.5-6.8,81.6-111.1,88.4-131.5c6.8-20.4,28.6-44.5,28.6-44.5L156.5,1838
	L147.4,1876.5z"/>
<path class="st5" d="M2592,1339.1c0,0-56.7-52.2-93-59c-36.3-6.8-81.6,49.9-108.3,72.6c-19.5,16.6-33.9,51.5-34.8,81.7
	c-0.3,11,1.1,21.4,4.8,30.1c13.6,32.4,11.3,33.4,11.3,33.4l-34-16.8c0,0-9.1-58-83.9-83c-74.8-24.9-165.6-141.3-165.6-141.3
	s-13.6,28-24.9,68.4c-11.3,40.5-52.2,48-52.2,57c0,9.1-9.1,68-22.7,98.9c-13.6,30.8-31.8,87.1-31.8,87.1s-6.7-3.3-15.8-8.1
	c-20.2-10.5-52.5-28.1-52.4-32.6c0.2-6.5-213-11.5-194.8-34.1c8.2-10.3,19.3-32.7,28.5-55c11.2-26.8,19.8-53.4,17.9-58.4
	c-3.5-9.1,8-83.9,0-123.2c-8-39.3,3.4-158,0-176.1c-3.5-18.1-3.3-61.2,0-83.9c3.3-22.7,23.9-40.8,41-49.9c17.1-9.1,1-27.2,27.3-63.5
	l17-31.8h63.3l144.2,17.7l318.4,39c0,0,37.5,58.1,67.5,107.4c16.7,27.4,31.2,52.2,35.6,62.7c12.5,29.5,105.4,172.3,119.1,201.8
	c8.2,17.8,13.1,35.6,15.7,46.9C2591.3,1334.5,2592,1339.1,2592,1339.1z"/>
<path class="st7" d="M1167.9,1300.5c0,0,80,43.1,87.1,70.3c7,27.2-1.2,77.1-1.2,77.1s-22-3.5-40.9-15.6
	c-35.9-22.9-27-65.7-39.4-86.4S1167.9,1300.5,1167.9,1300.5z"/>
<path class="st8" d="M2589.6,1327.1c-20.4-13.9-44.8-32.7-51.4-46.9c-11.8-25.5-112.8,15.9-138.8,0c-26-15.9,131.4-28.3,117-37.1
	c-14.4-8.8-121.6-8.2-167.2-15c-45.6-6.8,49-17,118-18.2c69-1.1,29.6-5.7,0-30.8c-29.6-25.2-201.7-36.1-225.3-39.9
	c-23.6-3.8-54.6-50.6-77.2-69.9c-22.6-19.3-106.7-11.3-157.7-35.4c-51.1-24.1-115.6-43.9-167.1-79.2c0,0-26.8,76.1,0,98.9
	c26.8,22.8,75.3,52,41.3,52.3c-34,0.3-75.5,60.5-75.5,60.5s129.9,34.4,114.7,43.5c-15.2,9.1-97-5.7-114.7,0s-31,47-29.9,70.3
	c1.1,23.3,105.5,36.3,162.4,65.8c57,29.5-22.9,45.4-72,47.8c-49.1,2.4-53,28.2-17,54.3c36,26.1,55.8,41.9,35.4,50.8
	c-12.1,5.3-96-30.6-161.9-60.4c11.2-26.8,19.8-53.4,17.9-58.4c-3.5-9.1,8-83.9,0-123.2c-8-39.3,3.4-158,0-176.1
	c-3.5-18.1-3.3-61.2,0-83.9c3.3-22.7,23.9-40.8,41-49.9c17.1-9.1,1-27.2,27.3-63.5l17-31.8h63.3l144.2,17.7l385.9,146.4
	c16.7,27.4,31.2,52.2,35.6,62.7c12.5,29.5,105.4,172.3,119.1,201.8C2582.1,1297.9,2587,1315.7,2589.6,1327.1z"/>
<path class="st7" d="M761,1345.9l-44.4,95.5c0,0,44.6-6.6,65.4-13.4s37.8-45.6,37.8-45.6L761,1345.9z"/>
<path class="st3" d="M1186,1890.1c0,0,52.8,4,84.3,6.9c31.5,2.9,94.9,30.3,94.9,30.3s-28.7,105.7-31.4,112.5
	c-2.7,6.8,26.8,15.9,31.4,20.4c4.5,4.5,18.1,29.5,15.9,45.4s-15.9,49.9-15.9,49.9s-8.3-6.7-31.4-19.2c-23.1-12.5-86.6,1.2-107,0
	s-38.8,0.6-85.2-14.8c-41.7-13.8,24-97.5,28.5-117.9C1174.7,1983.1,1186,1890.1,1186,1890.1z"/>
<polygon class="st9" points="759.4,656.5 1072.3,621.6 969.4,750.9 947.3,762.8 "/>
<path class="st10" d="M755.1,1368.6c0,0-38.5,77.1-63.5,127c-24.9,49.9-86.2,77.1-86.2,77.1s-50.7,39.3-62.1,59.7
	c-11.3,20.4-21.8,21.9-44.5,76.3c-22.7,54.4-122.5,117.9-157.6,147.4c-35.1,29.5-12.5,34-30.6,49.9c-7.1,6.2-15.9,12.4-25.9,17.1
	c-15.6,7.4-34.1,11.1-53.5,5.6c-17.8-5.1-39.2-33-54.5-56.5l-0.8-1.2l-1.3-1.9l-1.1-1.8l-0.1-0.1c-10.2-16.2-17.1-29.1-17.1-29.1
	s25-54.4,36.3-93c11.3-38.6,172.3-249.5,181.4-265.3c9.1-15.9,102-122.5,151.9-199.6c0,0,1.6-14.5,36-16.3c6.4-0.4,14-0.3,23,0.5
	c6.1,0.5,12.8,2.1,20,4.5C664.8,1289.1,755.1,1368.6,755.1,1368.6z"/>
<path class="st10" d="M1499,1432.1c-1.9,9.3-4.6,21.4-7.7,34.4c-3.5,14.7-7.5,30.6-11.4,44.9c-5.1,19.1-9.9,35.6-12.7,43.1
	c-0.9,2.5-2.6,8.3-4.9,16.5c-0.1,0.2-2.5,9.4-2.6,9.6c-11.3,42.4-31.1,123.8-40.7,170.9c-3.5,17.3-5.7,29.9-5.5,34.4
	c0.8,20.4-48.4,145.5-48.4,145.5s-37.8-20.7-49.5-23c-8-1.6-67.2-13.3-102.6-16.1h0c-15.8-1.3-27-2.1-27-2.1s15.9-59,11.2-86.2
	c-2.5-14.6,2.3-54.1,7.4-95.7c4.4-35.8,9.1-73,9.5-97.1c0.2-8.3,1-15.7,2.3-22.5c1.8-9.3,4.5-17.3,7.7-24.4
	c9.3-20.8,22.9-34.1,30.1-48.3c1.8-3.6,3.2-7.2,4.1-10.8c5.2-19.6-0.5-40-4.6-57.2c-4.8-20.4-15.6-59-24.7-77.1
	c-4.1-8.3-9.2-12.3-17.2-19.4c-9.5-8.5-23.1-21.3-44-50.9l-11.3-56.7l179.3-64.9h0l77.7-28.1l67.3,49.9c0,0,26.2,83.6,29.5,124.4
	c0.1,0.9,0.1,1.9,0.2,2.8C1513.2,1367.4,1505.6,1398.8,1499,1432.1z"/>
<path class="st2" d="M1510.3,1325.2c0,0-0.5-0.5-1.3-1.5c-6.6-7.7-36.7-42.8-52.8-66.9c-18.1-27.2-44.4-57.2-77.4-65
	c-33-7.9-140.6,74.8-165.7,108.9c-3.8,5.2-7.1,10.9-10,17c-16,34.2-17.3,80.1-5.9,98.6c1.2,2,2.8,3.8,4.7,5.5
	c19.1,17.4,68.1,22.7,51.9,26.2c-23.5,5.1-41.1-4.1-53-16.3c-9.3-9.5-15.1-20.8-17.7-28.6c-7.3-22.5-1.6-61.7-22-77.9
	c-20.4-16.2-147.4-122.1-158.7-122.1c-4.8,0-23.1,10.8-43.9,24.9c-28.8,19.6-62.5,45.8-71.7,58.9c-12.4,17.8-57,96.9-80.7,132.5
	c-6.5,9.8-11.5,16.2-13.8,17.2c-10.6,4.5-75.6,9.1-75.6,9.1l74.8-27.2l0,0c0.3-0.9,8.3-25.4-36.3-49.9
	c-45.4-24.9-113.4-59-163.3-70.3c-22.7-5.2-46.3-2.3-65.3,2.3c-5.3,1.3-10.2,2.7-14.6,4.1c-14.8,4.7-24.3,9.5-24.3,9.5s0,0,1.1-3
	c1.1-3.1,3.4-9.3,8-22c9.1-24.9,65.8-142.9,99.8-204.1c34-61.2,70.3-133.8,99.8-174.6l29.5-27.2l76.5,8.8l593.7,68.5
	c0,0,19.2,40.6,28.2,56.5c9.1,15.9,36.3,99.8,56.7,131.5C1501.2,1180.4,1510.3,1325.2,1510.3,1325.2z"/>
<path class="st8" d="M1521.1,1166.3l-10.6,161.6c0,0-0.5-1.6-1.5-4.3c-6.8-19.1-35-96.2-56.1-119.7c-24.2-27-85.9-102-73.8-90
	c12.2,12,51.6-31.6,28.5-30.2c-23.1,1.4-68.1-30.2-68.1-30.2s-26.1-3.2-66.4,18c-40.3,21.2,62.7,107.5,62.7,107.5l-13.6,30.8
	l-57.9-30.8c0,0-108.5-77.1-155.8-65.1c-47.3,12-108.5-12.4-108.5-12.4l-44.2-84.4c-81.6-44.2-166.7-58.2-187.1-59.7
	c-20.4-1.5-103.9,59.9-103.9,59.9l-27.3,87.4c0,0,59.8,18.8,80.3,33.6c20.4,14.8-78.7-21.6-98.9,0s-91.6,96.4-67.8,89.6
	s117-0.5,135,15c18,15.6,26.8,6.6-48.6,13.7c-75.4,7.1-111,43.8-111,43.8l-14.6,4.1l-23.3,6.5c1.1-3.1,3.4-9.3,8-22
	c9.1-24.9,65.8-142.9,99.8-204.1c34-61.2,70.3-133.8,99.8-174.6l29.5-27.2l76.5,8.8l179.2,34.3l414.5,34.2L1521.1,1166.3z"/>
<g>
	<path class="st11" d="M1774.5,1256.8c-4.6-31.5-22.8-152.2-30.7-158.1c-9.1-6.8,6.8-9.1,4.5-29.5c-1.4-12.2-5.2-19.6-8-28.4
		c-1.7-5.2-3-10.9-3.3-18.5c0-1-0.1-2-0.1-3c0-9.5-3.6-17-7.2-25c0,0,0,0,0,0c-4.2-9.2-8.5-19-7.7-33.2c0.2-3.1,0.6-6.3,1.3-9.8
		c2.4-12.1,5.1-22.5,7.6-32.6c0.2-0.7,0.3-1.4,0.5-2.1c0.3-1.3,0.7-2.7,1-4.2c0-0.1,0-0.1,0.1-0.2c0.1-0.5,0.2-1,0.3-1.4
		c3.4-14.5,6-29.2,6.3-48.5c0-1.3,0-2.7,0-4c0-9.2-1.2-22.5-2.9-37.6c-5.7-48.5-18-115.9-19.7-127c-2.3-14.6-18.5-111.8-22.7-163.8
		c-4.5-55.3,8.5-56.9-61.5-106.8c-28.1-20.1-147.2-92.8-233.3-100.9c-86.2-8.1-112.1-39.1-112.1-39.1c-36.3-14-209.9-7.5-287,17.4
		C923,325.4,788,392.2,738.1,458c-4.7,6.2-35.5,27.6-40.1,34.3c0,0,0,0,0,0c-43.7,63.9-79,145.9-79,186.9c0,17.8-0.7,33.4,0.4,47.7
		c1.6,22.2,7.5,41,26.8,58.9c16.3,15.2,41.4,31.4,39.8,37.1c-0.2,0.6-0.3,1.3-0.5,2c-3.9,17.5-1.9,61.2,26.5,74.3
		c29.5,13.6,206.1,49.9,226.7,54.4c20.5,4.5,188.3,34,233.7,34c21.3,0,53.7-1,84.4-2.9c34.5-2.1,66.9-5.3,79-9.4
		c29.1-9.8,70.5,7.1,100.3-32.4c2.9-3.9,6.4-11.9,10.1-22.1l0,0c12.1-33.4,26.1-89.9,27.8-98.6c2.2-11.2,15.5-37.7,15.9-38.5
		c-0.1,0.5-2.8,9.3-5.1,21.6c-0.1,0.6-0.2,1.3-0.3,1.9c-0.1,0.5-0.2,1-0.3,1.5c-1,5.8-1.8,12.3-2.2,18.9c0,0.5-0.1,1.1-0.1,1.6
		c-0.1,0.9-0.1,1.8-0.1,2.7c0,0.5,0,1,0,1.5c0,1.4,0,2.7,0,4.1c0,0.7,0,1.4,0.1,2.1c0.1,2.6,0.3,5.1,0.6,7.6c0,0.3,0.1,0.6,0.1,1
		c0.1,0.7,0.2,1.4,0.3,2.1c0.1,0.5,0.2,1,0.2,1.5c0.2,1.1,0.4,2.2,0.7,3.3c0.1,0.4,0.2,0.7,0.3,1.1c0.4,1.4,0.8,2.8,1.2,4.2
		c0.1,0.4,0.2,0.7,0.4,1.1c0,0,0,0.1,0,0.1c0.1,0.4,0.3,0.7,0.4,1.1c0.1,0.4,0.3,0.7,0.5,1.1c0.2,0.4,0.3,0.7,0.5,1.1
		c0.1,0.3,0.3,0.6,0.4,0.9c0.2,0.4,0.4,0.8,0.6,1.2c0.4,0.7,0.7,1.3,1.1,2c0.2,0.3,0.4,0.6,0.6,1c4.3,6.4,5.8,12.4,5.8,18.5
		c0,0.5,0,0.9,0,1.4c0,0.3,0,0.5,0,0.8c0,0.3,0,0.5-0.1,0.8v0.1c0,0.4-0.1,0.8-0.1,1.2c0,0.5-0.1,0.9-0.2,1.4
		c-0.2,1.5-0.4,3-0.8,4.5c-0.1,0.5-0.2,1-0.3,1.5c0,0,0,0,0,0c-0.2,1-0.4,2-0.7,3.1c-0.1,0.6-0.3,1.2-0.4,1.7
		c-0.1,0.5-0.2,0.9-0.4,1.4c-0.3,1.3-0.7,2.7-1.1,4.1c-0.2,0.7-0.4,1.4-0.5,2.1c-0.3,1.3-0.7,2.7-1,4.1c-0.3,1.3-0.6,2.6-0.9,3.9
		c-0.7,3.3-1.4,6.7-1.9,10.4c-0.1,0.4-0.1,0.9-0.2,1.4c-0.1,0.5-0.1,1-0.2,1.5c-0.1,0.7-0.1,1.3-0.2,2c-0.1,0.7-0.1,1.4-0.2,2.1
		c0,0.1,0,0.1,0,0.2c0,0.4,0,0.7-0.1,1.1c0,0.5-0.1,1-0.1,1.4c0,0.6-0.1,1.2-0.1,1.9c0,0.8,0,1.5,0,2.3c0,8.1,1,17,3.5,27.2
		c0.3,1.4,0.7,2.8,1,4.1c1.1,4,2.1,7.8,3.2,11.5v0l0,0.1c0.3,0.9,0.5,1.8,0.8,2.6c0.5,1.7,1,3.3,1.6,4.9c0.3,0.9,0.6,1.8,0.9,2.6
		c0.3,0.8,0.5,1.6,0.8,2.4c0.4,1.1,0.8,2.2,1.1,3.3c0.4,1.2,0.9,2.4,1.3,3.6c1.5,4,2.9,7.7,4.3,11.2c0.6,1.4,1.2,2.8,1.7,4.2
		c0.3,0.7,0.6,1.4,0.9,2c0.3,0.7,0.6,1.3,0.8,2c0.3,0.7,0.6,1.3,0.8,1.9c0.6,1.4,1.2,2.8,1.8,4.2l0,0l2.4,5.4
		c0.2,0.4,0.4,0.9,0.6,1.3l1.1,2.5c0.2,0.4,0.4,0.8,0.5,1.2l3.8,9.4c0.4,1.1,0.8,2.3,1.2,3.4c0.2,0.5,0.3,0.9,0.5,1.4
		c0.1,0.2,0.2,0.5,0.2,0.7c0.1,0.4,0.2,0.7,0.3,1.1c0.1,0.4,0.2,0.7,0.3,1.1c0.1,0.4,0.2,0.9,0.3,1.3c0.1,0.4,0.2,0.8,0.3,1.3
		c0,0.2,0.1,0.4,0.1,0.6c0.2,1,0.4,1.9,0.6,2.9c0.2,1.1,0.4,2.3,0.5,3.4c2.3,22.7-15.9,27.2,0,45.4c15.9,18.1,22.7,27.2,25,45.3
		c2.3,18.1,55.6,120.2,61.8,133.8c4.2,9.1,13.7,23.3,25.6,28.9c5.9,2.8,12.4,3.5,19.2,0.5c20.4-9.1,120.2-59,120.2-59
		S1775.2,1261.5,1774.5,1256.8z M923,714.9c22.4,16.6,83.9,73.1,83.9,73.1l-86.2,122.4c0,0-6.6-2.8-17.8-7.4
		c-4.7-1.9-10.1-4.2-16.2-6.6c3.7,0.7,7.1,1.1,10.4,1.2c10.2,0.2,18.8-3.1,26.6-12.1c17.4-20.4,62.7-102.1,62.7-102.1
		S953,748.7,918.6,720c-24-20-32.7-25.2-59.1-38.5c-10.1-5.1-27.2-3.9-40.7-5c-13.9-1.2-25.1-1.8-25.1-1.8s41.9-6.4,64.1-2.1
		c19.2,3.7,71.5,14.4,74.8,13.7c16-3.2,31.5-22,45.1-26.5c13.4-4.5,61.3-16.3,63.2-16.8c-1.5,0.6-45.5,17.3-59.4,24.9
		c-11.9,6.5-28.7,26.4-49.4,24.4c-22.1-2.2-48.6-4.2-55-6C878.1,686.9,912.3,707,923,714.9z"/>
</g>
<path class="st12" d="M1864.2,1574.9c-9.1,18.1,0.1,83.6-46.2,92.7c-9.9,2-35-33.4-35-33.4l-11.7,2c0,0-38.7-15.3-51.7-25.8
	c-24.9-20-28.4-48.9-37.5-69.3s-65.6-34.1-63.4-61.3c1.7-19.9,14.6-53.3,22.3-79.5c2.8-9.6,4.9-18.3,5.6-24.9
	c2.3-24.9-11.3-52.2-11.3-52.2s0.4-0.2,1.1-0.5c2.5-1.2,8.9-4.3,17.3-8.4c19.8-9.6,50.4-24.5,64.5-31.5c17-8.5,39.5-27.6,56.4-26
	c4.7,0.4,9,2.5,12.6,6.8c22,26.5,20.5,36.9,20.5,36.9s33.8,27.2,36,56.7C1845.9,1386.7,1873.3,1556.8,1864.2,1574.9z"/>
<path class="st13" d="M1755.3,1325.2c-29.5,16.2-45.4,18.5-45.4,59.3c0,40.8-6.8,174.6,0,197.3s29.5,45.4,45.4,49.9
	s36.3,18.1,43.1,0c6.8-18.1,13.6-83.9,15.9-122.5c2.3-38.6,0-115.7,0-115.7s-2.3-59.6-20.4-68.4S1755.3,1325.2,1755.3,1325.2z"/>
<path class="st14" d="M567.9,1604.7c0,0-10.2,8.3-36.1,44.6c-16.4,23-24,46-32.9,63.3c-4.5,8.9-10.6,17.6-19.8,27.2
	c-3.8,3.9-7.6,7.8-11.5,11.6c-24.1,24-48,44.5-51.7,47.4c-4.2,3.3-84.3-33.5-122-69.8c-37.7-36.3-51.9-65.4-51.9-65.4
	s17.5-24.7,37.5-52.6c10.3-14.4,21.3-29.7,30.8-43c7.8-10.9,14.7-20.4,19.5-26.9c22-30,54.5-75.4,54.5-75.4
	c48.8,66.2,96.4,102.4,119.1,111.5S567.9,1604.7,567.9,1604.7z"/>
<path class="st14" d="M998.9,369.1c3.4,68.1-35.1,190.6,0,208.7c35.1,18.1,200.7,22.7,243.8,31.7c43.1,9.1,76.1,43.2,91.1,47.6
	c45.3,13.5,31-28.6,93.9-19.1c76.1,11.5,84.9,35,123.4,46.3c38.6,11.3,51.6,9.3,63.5,0c9.1-7.1,49.9-68,56.7-95.2
	c6.8-27.2,21.6-58.3,18.4-88.1c-3.9-36.6-26.6-53.3-57.2-70.3c-30.6-17-84.3-57.5-148.6-79.9s-212.1-69-286.7-67.8
	s-228.7,16.6-214.9,36C996.1,338.5,998.9,369.1,998.9,369.1z"/>
<path class="st14" d="M854.9,629.3c10.2,10.3,46.4,41.9,63.7,56.9c-7-4.1-18.8-8.8-38.7-11.6c-31.2-4.4-42.5-8-61.1,1.8
	c-5.9,3.1-12.4,7.5-20.6,13.5c-34,25.5-93,59.5-117.9,50.5c-23.1-8.4-56.1-12.9-60.9-13.5c-1.1-14.3-0.4-29.9-0.4-47.7
	c0-41.1,35.3-123,79-186.9c0,0,0,0,0,0c41.2,55.4,75.2,75.8,93.3,94C809.6,604.4,841.3,615.7,854.9,629.3z"/>
<path class="st14" d="M1738.1,1022.4c2.4,11.2,2.3,18.5,2.3,18.5s-53.2,1.1-96.3,0c-27.5-0.7-68.9,11.1-95.2,19.7
	c-14.9,4.9-25,8.7-25,8.7c-1.5-14.7-9.6-28.5-18.9-51.3c-1.4-3.5-2.9-7.2-4.3-11.2c-3.7-9.9-7.4-21.4-10.8-35.1
	c-4.3-17.3-4.1-31.2-2.3-43c0,0,0-0.1,0-0.1c0.2-0.8,0.3-1.7,0.4-2.7c0,0,0,0,0-0.1c2.7-20.9-5.3-74.3-5.3-74.3s0.1,0.1,0.3,0.3
	c1.8,1.4,11,8,25.4,14.8c15,7.2,35.7,14.6,59.5,16.7c35.8,3.1,68-2.8,102-14.2c27.2-9.1,55.9-37.4,66.2-48.3c2.6-2.7,0,0,0,0
	s4.7,31.4,3,56.5c-1,15.8-3,18.5-6.4,33.6c-0.1,0.5-0.2,1-0.3,1.4c0,0.1,0,0.1-0.1,0.2c-0.3,1.4-0.7,2.8-1,4.2
	c-0.2,0.7-0.3,1.4-0.5,2.1c-0.2,0.7-0.3,1.4-0.5,2c-4.8,19.1-8.4,29.4-8.4,40.4c0,5.4,0.8,10.9,2.7,17.7c0.7,2.4,1.5,4.9,2.4,7.6
	c0.9,2.7,1.8,5.3,2.6,7.9c0,0,3.7,8.5,3.7,8.5C1736.8,1013.3,1736.5,1014.5,1738.1,1022.4z"/>
<path class="st14" d="M1462.3,1571c-0.1,0.2-2.5,9.4-2.6,9.6c-12,47.4-35.6,175.8-35.6,175.8s-1.7-1.9-5.1-4.9
	c-12.8-11.3-49.2-38.7-103.3-40.5c-68.4-2.3-110.4,4.5-110.4,4.5s-0.3-2.4-0.6-7.2c4.4-35.8,9.1-73,9.5-97.1
	c0.2-8.3,1-15.7,2.3-22.5c2.4-9.2,5-17.3,7.7-24.4c13.9-36.6,30.1-48.3,30.1-48.3l4.1-10.8l1.5-9.6c53.3-24.9,102.5-19.5,132-14.5
	c23.7,4,72.7,18.7,88.1,30.4C1483.6,1514.2,1473.7,1530.9,1462.3,1571z"/>
<path class="st15" d="M1197.2,987.3l513,461.4l-3,50.1l-13.3-5.4l-483-419.5c0,0-49.9-27.2-54.4-36.3c-4.5-9.1,15.9-49.9,15.9-49.9
	L1197.2,987.3z"/>
<path class="st16" d="M2390.7,2300.6v34c0,0,25.1,11.4,58,12c42.9,0.7,66.2-9.7,66.2-9.7v-36.3c0,0-25.4,8.3-62.1,11.3
	C2427.8,2314,2390.7,2300.6,2390.7,2300.6z"/>
<ellipse cx="2452.8" cy="2301.3" rx="62.1" ry="12.9"/>
<path class="st17" d="M2592,322.2c-6.8,21.4-31.7,80.3-43.1,87.1c-11.3,6.8-62.1,18.1-116.1,0c-54-18.1-106.1-33.7-127.8-68
	s9.8-106.3,28.5-97.5c18.7,8.8,102,62.4,131.5,75.4S2592,322.2,2592,322.2z"/>
<path class="st18" d="M2932.2,257.2c-5.5,22.3-14,53.6-20.5,65.1c0,0,0,0,0,0c-9.9,17.4-29.1,48.5-42.2,69.6
	c-2.1,3.3-4.7,6.1-7.6,8.4c-8.2,6.3-19.3,8.3-29.5,4.8c-9.4-3.2-20.1-6.5-29-8.5c-4.2-0.9-8.9-1.3-14.1-0.9
	c-31.8,2.3-63.5,13.6-88.4,11.3c-19.4-1.8-22.4-14.8-34.6-13.8h0c-3.4,0.3-7.6,1.7-13,4.8c-3.5,2-7.5,4.6-11.8,7.6
	c-0.1,0-0.1,0.1-0.1,0.1h0c-6.6,4.6-13.8,10.1-20.9,15.8c-21.3,17-41.9,35.6-41.9,35.6l-49.9-277.6l77.1-13c6.2-1.2,12.2-2.4,18-3.4
	c58.5-10.2,100.1-10.3,124.8-10.3c14.8,0,36.4,6.3,58,15.2c18.2,7.5,36.5,16.8,50.8,25.7c23,14.3,43.9,24.3,58.6,30.6
	c7.8,3.3,13.4,9.8,15.8,17.4C2933.3,246.7,2933.5,252,2932.2,257.2z"/>
<path class="st19" d="M2637.3,395.7c-15.9,38.5-43.1,31.8-45.3,77.1c-2.3,45.4-15.9,118.4-31.8,144.3s-123.3,205-127.4,216.3
	c-4.1,11.3-135.2,183.7-135.2,183.7s-259-15.9-308.8-40.8c-38.8-19.4-124.1-82.6-160.2-109.8c-10.4-7.8-16.7-12.6-16.7-12.6
	s-13.1-45.7,13.9-51.2c26.9-5.5,15.6-12.3,31.5-41.8c15.9-29.5,56.7-49.9,83.9-122.4c27.2-72.6,42.2-75.9,65.8-131.5
	c23.2-54.6,154.1-218.6,180.1-226.5c0.5-0.1,0.9-0.2,1.3-0.3c22.7-2.3,102-47.7,102-47.7s158-75.6,217.3-48
	c59.4,27.6,84.3,75.2,84.3,75.2C2616.9,293.7,2653.2,357.2,2637.3,395.7z"/>
<path class="st7" d="M2822.2,1126.1c15.9,11.3,42.7,22.1,42,43c-0.3,8.8-32.1,39.7-39,77.3c-6.8,37.6-11.3,35.3-22.7,44.4
	c-11.3,9.1-71.9,0-71.9,0l71.5-179.1L2822.2,1126.1z"/>
<path class="st20" d="M2699.5,1674.2c-26.1,15.6-56.3,35.8-98.2,46.2c-42.2,10.5-78.5,6.5-103.7,6c-4.8-12.4-12.2-30-12.2-30
	c31,2.2,90.6-4,118.5-10.6c43.7-10.4,68.6-31.2,88.7-46.2C2695,1651.1,2696.8,1659.8,2699.5,1674.2z"/>
<polygon class="st21" points="3050.1,475.1 2762.7,1123.7 2804.7,1148.6 3090.9,485.4 "/>
<path class="st21" d="M2719,1209.8c0,0-356,802.8-387.8,843.6c-31.7,40.8-141.7,69-200.1,88.6s-151.4,29-187.7,42.6
	c-36.3,13.6-24.9,32,0,50.2c24.9,18.1,59,29.5,106.6,22.7s181.4-46.1,213.2-58.2s70.3-36.3,70.3-55.9c0-19.7,93.5-214.7,111.4-239.6
	s317.9-686.2,317.9-686.2L2719,1209.8z"/>
<path class="st11" d="M1330,557.9h17.6c2,0,3.1-2.4,1.8-3.9c-12.7-15.3-58.6-71.1-66.2-82.2c-8.9-12.9-29.7-48.8-29.7-48.8
	s16.3,63.2,32.2,83.2C1301.7,526.1,1330,557.9,1330,557.9z"/>
<path class="st5" d="M2808,275.8c-5.1,44.4-13.4,119.5-18.7,119.9c-31.8,2.3-63.5,13.6-88.4,11.3c-19.4-1.8-22.4-14.8-34.6-13.8
	c13.1-4.8,41.4-31.5,46.7-62.2c5.4-30.6-53-139.5-93.8-164.4c0,0,1.6-1.3,4.4-3.4c58.5-10.2,100.1-10.3,124.8-10.3
	c14.8,0,36.4,6.3,58,15.2C2808.1,186.1,2812.6,234.8,2808,275.8z"/>
<path class="st6" d="M1211,283.4c-60.5,38.8-57.6,106.7-45,139.6s82.7,95.5,119.8,111.2c37.1,15.7,82.9,23.7,82.9,23.7l-105.3-261.9
	l-9.7-20.1C1253.6,275.8,1223.3,275.4,1211,283.4z"/>
<path class="st7" d="M3205.9,421.3c-9.1,22.7-13,14-35.6-13.9c-22.7-27.9,40.8,34,9.1,63.2c-6.8,6.2-30.4-20.1-45.5-37.9
	c19.2,24,40.3,29.9,30.7,53.5c-7.7,18.8-19.1,16.3-34.8,3.2c-25-20.8-47.3-41.2-47.9-41.5c0.8,1,84.2,59.8,42.5,69.5
	c-23.5,5.5-41.6-25.2-56.1-32.4c-4.4-2.2-19.6-1.1-19.6-1.1c-1.3-13.2,7.6-20.9,10.5-26.7c9.1-17.9,36.3-36.5,65.2-56.9
	c21.7-15.3,39.1-46.1,39.3-75.8c8.8,5.3,16.1,11.6,20.3,19.1c11.3,20.4,26.7,32.3,26.7,51.9C3210.5,412.5,3207.9,416.2,3205.9,421.3
	z"/>
<path class="st22" d="M1567.7,287c25.1,80.2-13.6,127-38.6,161c-24.9,34-29.5,46.7-54.4,77.8c-24.9,31.1-39.6,47.9-64.2,47.9
	c-24.6,0-62.4-21.5-92.2-75.8c-27-49.1-80.5-71.9-60.1-137.6c20.4-65.8,62.4-175.3,135-184.4C1465.7,166.8,1556.4,250.8,1567.7,287z
	"/>
<path class="st23" d="M1277.9,350.4c-10.5,2.2-15.9,24.6-15.9,31.6c0,7-4.3,29.6-4.3,29.6s-21.9-20.4-9.3-45.4
	c12.6-25-0.5-47.1,20.2-45.6c20.6,1.5,33.1,23,33.1,23v10.2C1301.7,353.8,1293.2,347.1,1277.9,350.4z"/>
<g>
	<path class="st2" d="M1597.4,288c0-15.9-19.3-73.2-32.9-102c-3.8-8.1-9.3-16.5-16-24.6c-17.2-20.9-42.8-40.4-71.3-50.2
		c-28.2-9.7-145.1,0-170.1,27.2c-24.9,27.2-58.1,85.4-66.9,124.7c-8.8,39.7-3.9,71.4,0,116.5c1.5,17.3,24,61.8,31.1,74.3
		c19.5,34,68.4,76.4,68.4,76.4s-32.6-42.6-30.4-74.4c2.1-28.7,15.2-76.5,27.8-77.6c1.3-0.1,2.7,0.3,4,1.3c13.6,10.5,37.6,23,55.7,32
		c18.1,9.1,69,12.5,69,12.5c20.4-2.3,84.3-4.5,110.2-27.2C1602,374.2,1597.4,303.9,1597.4,288z M1290.1,385.5
		c-1.4,6.2-8.3,62.2-22.7,40.3c-9.1-13.8-10-44-10-54.5c0.1-21.2,10.3-54.6,22.9-42.5C1299.2,347,1296.2,358.5,1290.1,385.5z"/>
</g>
<path class="st23" d="M1399.8,461.8c1.1,2.6,4.8,3.1,7.8,3.1c3,0,7-1.8,7-1.8l-16.4-5L1399.8,461.8z"/>
<path class="st23" d="M1492.2,472.8c1.4,0.3,2.3,2.3,5.4,1.4c3.1-0.9,6.2-5.2,6.2-5.2h-11.6V472.8z"/>
<path class="st2" d="M2832.4,1228c-31.8,9.1-80.4,4.5-99.1,0c-5-1.2-10.8,1.9-16.8,7.1c-16.6,14.4-23.5,38.3-23.5,38.3l-5.3,6.8
	c-1.1-0.4-27.3-7.8-46.5-19.5c-14.6-8.8-28.1-20.1-31-32.6c-6.8-29.5-93-36.1-90.7-57.8c1.4-13.1-0.1-31.6-1.4-44.2
	c-0.9-8.1-1.7-13.7-1.7-13.7l59.8-95.3c38.6,2.3,61.2,15.9,74.8,27.2c13.6,11.3,23.9,31.8,82.3,56.7c58.3,24.9,105.9,56.9,115,69.3
	S2864.1,1218.9,2832.4,1228z"/>
<path class="st23" d="M1480.7,458.6c4.2-1.5,19.3-9.8,28.3-9.8c9.1,0,12.1,0,12.1,0s-0.6,3-2,4.9c-1.4,1.9-31.2,5.9-34.3,6.1
	C1481.7,460.1,1480.7,458.6,1480.7,458.6z"/>
<path class="st23" d="M1453.1,454.3c-1.7,2.4-6.2,7.2-11.9,2.4c-5.7-4.8-31.5-13.6-38.3-17.3c-6.8-3.7-42.5-14.7-40.8-16.2
	s20.7,2.8,29.5,4.3c8.8,1.4,45.4,18.1,50.7,20.1S1453.1,454.3,1453.1,454.3z"/>
<path class="st24" d="M1467.8,481.3c-0.6,6.2-2.3,23.2-2.3,26.4s-1.4,9.9-6,12.2c-4.5,2.3-18.1,0-18.1,0s6.8-1.7,11.6-0.6
	s7.4-2.8,8.2-4.3C1462.1,513.6,1467.8,481.3,1467.8,481.3z"/>
<path class="st24" d="M1426.7,498.6c-5.1,2.3-5.7,9.9-5.1,11.6c0.6,1.7,2.5,3.4,2.5,3.4s0.2-2,0-4.3c-0.2-2.3,0.4-7.8,2.6-8.3
	S1426.7,498.6,1426.7,498.6z"/>
<path d="M1423,459.8c-4.5,0.5-16.7-0.6-22.1-3.4c-5.4-2.8-21.8-13.3-21.8-13.3s10.5,9.7,11.9,11.2c1.4,1.5,18.7,8.9,21,8.9
	s12.6-1.1,12.6-1.1L1423,459.8z"/>
<path d="M1484.8,467.2c5.1,1.1,15.1,1.7,16.1,1.4c0.9-0.3,9.4-1.4,9.4-1.4s-2.5,3.7-9.4,3.7C1493.9,470.8,1484.8,467.2,1484.8,467.2
	z"/>
<path class="st24" d="M1398.1,534.3c8.4,2.6,33.9,6.5,36.8,6.5c2.8,0,21.3,0,21.3,0s-13.6-4.5-14.7-4.8c-0.7-0.2-2.7,0.8-5.7,0.3
	c-1.8-0.3-3.9-2.3-6.8-2c-7.7,0.9-32-0.2-32-0.2s17.9,8.1,21.3,9.3s12.2,3.7,15.9,3.7s19-5.1,19-5.1L1398.1,534.3z"/>
<g class="st25">
	<path class="st26" d="M1594.5,382.9c-9.4,49.4-18,87.3-36.6,109.3c-23.2,27.5-95.2,45.9-133.8,34.5
		c-38.6-11.3-98.6-31.1-106.6-61.2c-8-30.1,3.7-91.7,20.4-82.6c16.7,9.1,59.6,41.3,104.3,46.8c64.6,7.9,119.3-13.1,130.6-29.5
		c11.2-16.3,21.7-34.1,21.7-34.1S1595.3,378.8,1594.5,382.9z"/>
</g>
<path class="st2" d="M1492.2,980.2c20.1,3.9,77.5,14.6,110.5,13.8c29.9-0.7,92.8-10.4,122.2-15.2c-5.8-20.7-1.4-29.7,5.7-58.1
	c-22.9,9.1-79.1,31.1-98.1,35.1c-23.8,5.1-107.1,0.1-146.6-12.7c0,0,1.6,15.3,2.4,20.3C1489.1,967.7,1492.2,980.2,1492.2,980.2z"/>
<path class="st13" d="M1646,1437.6c-25.7-14.7-26,24.3-27.4,42.2s17.8,37.3,21.5,39.7c3.6,2.3,17.8,14.6,17.8,14.6s-1.3-31.9,0-38.9
	C1659.2,1488.1,1658.6,1444.9,1646,1437.6z"/>
<path class="st13" d="M1693.3,1478.5c-29.9-18.9-32.2,27.6-34.8,48.8c-2.6,21.3,19.3,45.4,23.5,48.4s20.5,18.3,20.5,18.3
	s0.1-38,2-46.4C1706.4,1539.3,1708,1487.8,1693.3,1478.5z"/>
<path class="st6" d="M1499,1432.1c-1.9,9.3-4.6,21.4-7.7,34.4c-2.9-23.9-11.4-97-10.6-120.6c1-28.3-106.4-90.7-118.6-89.2
	c-12.2,1.5-113.6,49.5-148.9,68.4l-1.2,26.3l-44-50.9l167.9-121.6h0l161.8,112.8l12.9,36.2C1513.2,1367.4,1505.6,1398.8,1499,1432.1
	z"/>
<path class="st6" d="M1646.5,1375.4c2.3-24.9-11.3-52.2-11.3-52.2s0.4-0.2,1.1-0.5c-11.9-5.7-21.4-19.8-25.6-28.9
	c-6.2-13.6-59.5-115.7-61.8-133.8c-2.3-18.1-9.1-27.2-25-45.3c-15.9-18.2,2.3-22.7,0-45.4c-0.1-1.2-0.3-2.3-0.5-3.4
	c-0.2-1-0.4-2-0.6-2.9c0-0.2-0.1-0.4-0.1-0.6c-0.1-0.4-0.2-0.9-0.3-1.3c-0.1-0.4-0.2-0.9-0.3-1.3c-0.1-0.4-0.2-0.7-0.3-1.1
	s-0.2-0.7-0.3-1.1c-0.1-0.2-0.1-0.5-0.2-0.7c-0.1-0.5-0.3-0.9-0.5-1.4c-0.4-1.1-0.8-2.2-1.2-3.4l-3.8-9.4c-0.2-0.4-0.3-0.8-0.5-1.2
	l-1.1-2.5c-0.2-0.4-0.4-0.8-0.6-1.3l-2.4-5.4l0,0c-0.6-1.4-1.2-2.8-1.8-4.2c-0.3-0.6-0.6-1.3-0.8-1.9c-0.3-0.7-0.6-1.3-0.8-2
	c-0.3-0.7-0.6-1.3-0.9-2c-0.6-1.3-1.1-2.7-1.7-4.2c0.5,0.8,1.1,1.6,1.6,2.3l-6.9-18.3c0.3,1.7,0.6,3.3,1,4.8
	c-0.4-1.2-0.9-2.4-1.3-3.6c-0.4-1.1-0.8-2.1-1.1-3.3c-0.3-0.8-0.5-1.6-0.8-2.4c-0.3-0.9-0.6-1.7-0.9-2.6c-0.5-1.6-1-3.3-1.6-4.9
	c-0.3-0.9-0.5-1.7-0.8-2.6l0-0.1v0c-1.1-3.7-2.2-7.5-3.2-11.5c-0.4-1.3-0.7-2.7-1-4.1c-2.5-10.2-3.5-19.2-3.5-27.2
	c0-0.8,0-1.5,0-2.3c0-0.6,0-1.2,0.1-1.9c0-0.5,0-1,0.1-1.4c0-0.4,0-0.7,0.1-1.1c0-0.1,0-0.1,0-0.2c0-0.7,0.1-1.4,0.2-2.1
	c0.1-0.7,0.1-1.3,0.2-2c0.1-0.5,0.1-1,0.2-1.5c0.1-0.5,0.1-0.9,0.2-1.4c0.5-3.7,1.1-7.1,1.9-10.4c0.3-1.3-5.3-65-5.3-65.4
	c-0.3-1.1-0.5-2.2-0.7-3.3c-0.1-0.5-0.2-1-0.2-1.5c-0.1-0.7-0.2-1.4-0.3-2.1c0-0.3-0.1-0.6-0.1-1c-0.3-2.5-0.5-5-0.6-7.6
	c0-0.7,0-1.4-0.1-2.1c0-1.4,0-2.7,0-4.1c0-0.5,0-1,0-1.5c0-0.9,0.1-1.8,0.1-2.7c0-0.5,0-1.1,0.1-1.6c0.4-6.6,1.2-13,2.2-18.9
	c0.1-0.5,0.2-1,0.3-1.5c0.1-0.7,0.2-1.3,0.3-1.9c2.2-12.3,4.9-21.2,5.1-21.6c-0.4,0.8-13.6,27.4-15.9,38.5
	c-1.7,8.7-15.8,65.2-27.8,98.6l0,0c-3.7,10.2-7.2,18.3-10.1,22.1c-29.7,39.5-71.1,22.6-100.3,32.4c-12.1,4.1-44.5,7.3-79,9.4
	c14.3-4,85.2-25.5,140.2-74.2c51-45.2,82.7-126,93-127c22.7-2.3,54.2-34,85.9-43.1c29.8-8.5,32.3-26.4,57.6-44.5
	c1.6-1.2,3.3-2.4,5-3.7c0,0-21.4,41-30.2,48.2c-15.8,13-29.9-2.3-50.3,31.5c-9.1,15-20.8,20.8-32.8,23.6c-0.9,8.4-2.6,17.9-4.7,27.4
	c21.6,15.7,31.2,25.5,55.4,19.5c27.4-6.8,62.6-12.2,62.6-12.2s-42.4,28-62.6,30.3c-20.2,2.3-54.7-22.1-54.7-22.1l-3.5-3.2
	c-5.9,23.8-9.6,29.5-10.8,39.8c-1.3,11.4,3.5,45.6,3.5,45.6c2.9,29.1,3.7,81.1,10.8,91.3c7.1,10.2,21.2,39.6,21.2,39.6l0,0
	c2.1,2.5,4.4,5.4,6.6,8.9c15.8,24.6,35.3,75.9,46,105.8c10.7,29.9,33.5,104.7,43.6,111.5c7,4.7,12.4,24.6,15.1,36.4
	c1.2,5.3,1.8,8.9,1.8,8.9l17.2,91.6l-31.7-14.5C1643.8,1390.7,1645.9,1382.1,1646.5,1375.4z"/>
<path class="st2" d="M654,594.4c37.4,18.7,59.5,28.1,90.1,34s140.2,27.7,146.7,33.4c6.5,5.7,27.8,24.4,27.8,24.4s-52-16.1-90.3-16.1
	c-38.3,0-113.1-6-133.5-16.2c-20.4-10.2-63.3-32.1-63.3-32.1l13.4-33.8L654,594.4z"/>
<path class="st27" d="M858.9,891.2c-51-17-172.8-68.3-172.8-68.3s23.1,17,57.1,34.2C777.3,874.2,858.9,891.2,858.9,891.2z"/>
<path class="st6" d="M981.4,607.1c-8-5.3-11.8,29.2-22.9,43c-4.7,5.9-9.3,10.7-12.9,13.2c-11.9,8.5-32.3,8.5-44.2-8.5
	c-11.9-17-66.3-74.1-71.4-66.8s59.6,59,40.9,56.1c-18.8-2.9-118.9-27-115.7-16c4.3,14.8,91.7,0.5,92.9,21.9s-95.5,33.3-86.7,42.2
	c13.7,13.8,54.4-0.9,72-6s18.7,12.8,44.2,26.4c25.5,13.6,69.7,50.2,69.7,50.2s8.7,32-3.4,53.6c-5.6,9.9-6,40.8-28.1,52.7
	c-41.2,22.2-35.5,33.2-29.2,27.4c11.9-10.8,40.2,24.2,40.2,24.2s88.2-163.2,95.3-162.1c7.1,1.1,84,56.8,95.1,64.4
	s38.6,26.7,38.6,26.7s-31.7-53.1-62.3-72.9c-30.6-19.8-154.8-73-144.6-77c10.2-4,40.8-15.9,76.5-21c35.7-5.1,92.1,8.5,140.4,13.6
	c48.4,5.1,152,1.3,155.5-6c6.5-13.4-31.6,0.8-77,0c-45.4-0.8-224.3-26.6-245.5-26.5s70.9-8.3,86.2-16.8
	c15.3-8.5,44.2-36.3,20.4-25.8c-23.8,10.5-89,20.7-106.6,25.8s-38,22.1-29.5,11.9C978,644.6,991.7,613.9,981.4,607.1z"/>
<path class="st12" d="M1254.2,985.4c-0.2,24.9-9.3,43-18.3,36.3c-9.1-6.8-38.5-31.8-54.4-24.9c-15.9,6.8-13.6,34-4.5,49.9
	c0.8,1.4,1.7,2.7,2.7,4c10.5,13.8,31.4,23.2,31.4,23.2s-31.8,38.5-54.4,38.5c-22.7,0-45.4-15.9-79.4-31.8
	c-34-15.9-59-20.4-78.2-45.3c-19.3-25-30.8-61.2-60.2-81.6s-70-53.8-70-53.8c17.1-1.3,34.9-11.3,50-23.3
	c17.7-14,31.7-30.8,37.1-39.8c9.9-16.8,7.4-55,0-71.4c-7.4-16.4,13.7-25,13.7-25l29.5,27.2c0,0,23.8-20.4,42,0
	c18.1,20.4,126.8,83.9,156.4,115.7S1254.4,960.5,1254.2,985.4z"/>
<path class="st6" d="M1211,1073.8c0,0-31.8,38.5-54.4,38.5c-22.7,0-45.4-15.9-79.4-31.8c-34-15.9-59-20.4-78.2-45.3
	c-19.3-25-30.8-61.2-60.2-81.6s-70-53.8-70-53.8c17.1-1.3,34.9-11.3,50-23.3c1.2,2.8,2.9,5.8,5,9c50.1,75.1,100.6,119.3,117.1,131.5
	c49.4,36.4,100.4,26.8,138.8,33.5C1190.1,1064.3,1211,1073.8,1211,1073.8z"/>
<g>
	<path class="st28" d="M717.7,1074c3.2,0,3.2-5,0-5C714.5,1069,714.5,1074,717.7,1074L717.7,1074z"/>
</g>
<path class="st6" d="M639.5,670.7c8.2,8.5,25.2,14.6,46.6,15.5s75.3-7.8,75.3-7.8s-81.1-2.1-96.4-7.8S631.3,662.2,639.5,670.7z"/>
<path class="st6" d="M666.7,758.4c19.4-7.5,81.6-0.4,88.4,0c6.8,0.4,51-4.4,51-4.4s-23.8,15.3-69.7,14.8
	C690.5,768.2,656.3,762.4,666.7,758.4z"/>
<path class="st2" d="M1289.2,1578.3c52.6,4.6,98.6,11.2,119.1,19.1c33.3,12.9,44.6,17.9,44.6,17.9l-11.3,47.3
	c0,0-67.3-30.3-133.7-38.5c-27.1-3.3-94.8,7.4-94.8,7.4l1.2-27.9l2.2-15.9C1216.5,1587.8,1260.4,1575.8,1289.2,1578.3z"/>
<path class="st6" d="M2002.2,615.1c5.3,21.6,176.9,311.3,176.9,311.3l34.2,90.9c0,0-113.8,36.4-211.1-12.5
	c-97.3-48.9-121-113.6-81.9-98.3c39,15.3,65.2,45.6,127,50.9c61.7,5.3,71.2-34.4,51.2-36.7s-149.3-31.5-122.1-35.6
	c27.2-4.1,105.4,6.1,105.4,6.1s-146.3-68.5-122.5-71.7c23.8-3.2,77.2,14.3,87.9,7.3s-17.4-63.8-30.6-72.8s24.4-12.1,24.4-12.1
	L2002.2,615.1z"/>
<path class="st6" d="M1626,1053.5c44.2,6.1,94.8,29.3,104.6,28.2c9.8-1.1,21.4,40.8-3.3,30.6c-24.8-10.2-62.2-40.8-62.2-40.8
	L1626,1053.5z"/>
<path class="st6" d="M1542.6,1008.6c39.1,13.6,44.6,6.8,69.1,8.5c24.5,1.7,32.5-6.8,26.8-8.5c-5.7-1.7-125.3-22.3-117.4-14.6
	C1529,1001.8,1542.6,1008.6,1542.6,1008.6z"/>
<path class="st8" d="M1477.2,111.1c-28.2-9.7-145.1,0-170.1,27.2c-24.9,27.2-58.1,85.4-66.9,124.7c-8.8,39.7-3.9,71.4,0,116.5
	c1.5,17.3,24,61.8,31.1,74.3c19.5,34,68.4,76.4,68.4,76.4s-32.6-42.6-30.4-74.4c2.1-28.7,15.2-76.5,27.8-77.6
	c-3.6-23.3-17.8-127.8,5.5-177.5c26.3-56.1,98.8-80,154.9-64.3c18.9,5.3,36.8,15.2,51,25C1531.4,140.4,1505.8,120.9,1477.2,111.1z
	 M1290.1,385.5c-1.4,6.2-8.3,62.2-22.7,40.3c-9.1-13.8-10-44-10-54.5c0.1-21.2,10.3-54.6,22.9-42.5
	C1299.2,347,1296.2,358.5,1290.1,385.5z"/>
<path class="st6" d="M902.9,903.1l3.6,3.4l-220.9-81.6c0.2-0.7,0.3-1.4,0.5-2c1.6-5.7-23.5-22-39.8-37.1
	c-19.3-17.9-25.2-36.7-26.8-58.9c-1.1-14.3-0.4-29.9-0.4-47.7c0-41.1,35.3-123,79-186.9c0,0,0,0,0,0c4.6-6.7,35.3-28,40.1-34.3
	C788,392.2,923,325.4,1000.1,300.5c-111.7,47.6-221.3,167.3-245,180.8c-23.7,13.6,8.5,46.7,13.6,48.9c5.1,2.2,35.8,9.4,17.9,13.1
	c-17.9,3.8-50.8-54.9-70-37.2c-19.3,17.7-41.4,51.1-39.7,67.6c1.7,16.4,36.9,14.3,39.7,27.3c2.8,13-55-27.8-62.6-6.6
	c-7.7,21.3-23.6,57.6-22.4,70.9c1.2,13.3,3.9,49.1,6,64.4c2,15.2,43.7,81,62,82.1c18.3,1.1,110.1-2.8,125.5,0
	c15.3,2.8-75,13-69.8,19.8c5.2,6.8,37.9,15.9,60.7,19.8c22.7,4,53,19.3,53,19.3l28.4,26.9L902.9,903.1z"/>
<path class="st6" d="M1276.1,1534.1c-0.6,0-32.2,94.3-31.7,106.7c0.5,12.4-8.6,154.6-9.1,158.3c-0.6,3.7-22.2,93.2-22.2,93.2h0
	c-15.8-1.3-27-2.1-27-2.1s15.9-59,11.2-86.2c-2.5-14.6,2.3-54.1,7.4-95.7c4.4-35.8,9.1-73,9.5-97.1c0.2-8.3,1-15.7,2.3-22.5
	c1.8-9.3,4.5-17.3,7.7-24.4c9.3-20.8,22.9-34.1,30.1-48.3c1.8-3.6,3.2-7.2,4.1-10.8c5.2-19.6-0.5-40-4.6-57.2
	c-4.8-20.4-15.6-59-24.7-77.1c39.7,27.2,44,63.5,44,63.5s34.6-19.9,49.2-19.6c14.6,0.3-27.8,26.6-27.5,47.4
	c0.3,20.8,47.9,22,47.9,22S1276.7,1534,1276.1,1534.1z"/>
<path class="st28" d="M498.9,1708.7v3.9c-4.5,8.9-10.6,17.6-19.8,27.2c-3.8,3.9-7.6,7.8-11.5,11.6c-17-11.1-38.7-25-59.7-37.7
	c-28.2-17.1-88.7-68.4-128.3-102.8c10.3-14.4,21.3-29.7,30.8-43c16.3,16.4,37.4,36.4,54.7,48.6
	C411.8,1649.4,498.9,1708.7,498.9,1708.7z"/>
<path class="st6" d="M755.1,1368.6c0,0-38.5,77.1-63.5,127c-24.9,49.9-86.2,77.1-86.2,77.1s-53.7,44.3-65.1,64.7
	c-11.3,20.4-18.9,16.9-41.5,71.3c-22.7,54.4-122.5,117.9-157.6,147.4c-35.1,29.5-12.5,34-30.6,49.9c-7.1,6.2-15.9,12.4-25.9,17.1
	l9.2-50.9c0,0,87.1-86.4,113.9-100c26.9-13.5,47.9-38.3,47.9-38.3l31.8-49.6c0,0,9.7-30.4,15-42.2c9.8-21.7,34.4-53.3,63.1-64.1
	c63.8-23.9,80.6-71.1,99.1-96.9c18.5-25.9,42.7-76.2,34.6-87.4c-34.6-47.7-58.2-79.6-94.3-92v-32.9
	C664.8,1289.1,755.1,1368.6,755.1,1368.6z"/>
<path class="st6" d="M573.7,1295.5c-86.2,39.6-145.7,163.1-165.8,185.5c-20.1,22.5-98.4,159.4-142.6,186.6
	c-44.2,27.2-88.5,204.5-88.5,204.5l-0.8-1.2l-1.3-1.9l-1.1-1.8l-0.1-0.1c-10.2-16.2-17.1-29.1-17.1-29.1s25-54.4,36.3-93
	c11.3-38.6,172.3-249.5,181.4-265.3c9.1-15.9,102-122.5,151.9-199.6c0,0,1.6-14.5,36-16.3L573.7,1295.5z"/>
<path class="st8" d="M1213.1,1325.2l-11.2,96.6l-1.1,10c-9.3-9.5-15.1-20.8-17.7-28.6c-7.3-22.5-1.6-61.7-22-77.9
	c-20.4-16.2-147.4-122.1-158.7-122.1c-4.8,0-23.1,10.8-43.9,24.9c-28.8,19.6-62.5,45.8-71.7,58.9c-12.4,17.8-57,96.9-80.7,132.5
	l-14.5-0.9l0,0l28.3-36.1c-40.8-42.1-138-90.8-84.3-86.8c53.7,3.9,45.7,48.8,84.3,43.3c38.6-5.5,67.3-60.2,48.9-82.1
	c-18.3-21.9-134.2-53.1-59.3-52.8c74.4,0.3,147.8,23.7,148.9,24.1c-1.1-1.1-83.6-86.1-39.8-77.1c44.1,9.1,67.3,30.2,86.3,28.1
	c19-2,130.5-15,103.7,0c-26.8,15-50.7-8.8-26.8,15c23.8,23.8,96.4,23.8,104.3,34s-81.9,25.6-57.4,38.3c18.3,9.5,56.4,37.7,74.5,51.3
	C1209.3,1322.2,1213.1,1325.2,1213.1,1325.2z"/>
<path class="st29" d="M1336.3,2214c0.1-0.2,3.6,8.3-2.3,17.4c-13.3,20.4-48.2,17-87.9,23.4c-30.4,4.9-107.5,11.3-122.4,11.3
	c-19,0-20.2-33.8-23.6-38.6c0,0,19.7,17,27.9,19.2c45.2,12.1,186.7-14.5,186.7-14.5S1333.8,2220.4,1336.3,2214z"/>
<path class="st29" d="M64.2,2182.7L64.2,2182.7c-9.8,7.3-19.7,13.9-26.8,16.6c-10.4,4-37.4-37-37.4-54.7c0-4.4,2.8-10.8,6.9-17.8
	c1.4-2.5,3.1-5,4.8-7.6c-1,9.5-1.6,20.6-0.3,25.4c3.8,14.2,10.2,34.7,18.1,38.1C37.4,2186.1,64.2,2182.7,64.2,2182.7z"/>
<path class="st18" d="M2580.7,1011.4c0,0-23.2,48-31.8,63.5c-6.1,11-21.5,36-30.9,51.2l0,0c-4.5,7.3-7.7,12.3-7.7,12.3
	s-1.1,0.1-3.2,0.2c-15.1,0.8-82.3,3.1-160.1-14.9c-37.7-8.7-65.9-13.7-87.1-19.2h0c-28.6-7.4-44.4-15.7-53.5-35.3l-0.2-0.4
	c-3.2-6.9-12.1-25-24.5-50.4l-0.6-1.1c-9.6-19.6-21.2-43.4-33.9-69.8c-0.1-0.1-0.3-0.6-0.3-0.6c0,0,0-0.1,0-0.1c0,0,0,0,0,0
	c-22.6-46.7-55.7-104-84.1-159.8c-41.5-81.6-72.8-160.3-46.2-199c20.6-30,47-57.5,79.1-67.1c66.2-19.7,141.2,7.9,189.8,67.1
	c47.4,57.7,75.1,134.3,75.1,152.4c0,18.1,20.4,113.4,20.4,121.9c0,4.9,6.8,14.1,12.5,22.3c4.2,6.1,7.9,11.7,7.9,14.5
	c0,0.6,0.1,1.2,0.1,1.9c0.7,5.2,4.4,13.9,13.5,19.6c4.5,2.9,10.3,5,17.7,5.7c1.7,0.2,3.2,0.4,4.4,0.8c4.1,1.2,5.4,3.3,5.3,6
	c-0.2,7.7-12.5,19.6-4.2,22.7c1.2,0.5,3.4,1.4,6.4,2.6c24.1,10,116.1,45.4,133.2,51.9c0.3,0.1,0.6,0.2,0.8,0.3
	c0.2,0.1,0.4,0.1,0.6,0.2C2580.1,1011.2,2580.5,1011.4,2580.7,1011.4L2580.7,1011.4z"/>
<path class="st5" d="M2444.8,958.5c-24.5,28.5-86.8,99.9-103.3,110.8c-20.6,13.6-46.8,43.1-81.5,35.3h0
	c-10.7-2.4-37.7-3.2-49.4-25.1c-11.2-20.9-63.6-132.5-63.6-132.5c57.6,0.1,84.8-7.4,138.6-19.4c51.3-11.3,91.5-37.8,108-42.9
	c4.2,6.1,7.9,11.7,7.9,14.5c0,4.8,3.3,15,13.6,21.6l17.7,5.7c1.7,0.2,3.2,0.4,4.4,0.8l5.3,6c-0.2,7.7-12.5,19.6-4.2,22.7
	C2439.6,956.3,2441.8,957.2,2444.8,958.5z"/>
<path class="st2" d="M2047.7,438.8c9.4,22.5,29.5,77.4,81.6,110.1s150.4,26.8,179.3,19.2c28.9-7.6,53.1-29.2,96.8-19.2
	c43.7,10.1,78.4,18.7,102.6,0c30-23.2,51.6-80.2,59.8-91.7c8.2-11.6,51.3-67.3,51.3-67.3s31.7-21,31.7-65.4s-29.5-123.6-70.3-136.2
	c-40.8-12.5-140-21.9-204.9,6.6c-64.9,28.5-162.7,66.7-187.4,85.2S2038.4,416.4,2047.7,438.8z"/>
<path class="st20" d="M2686.1,155.2c26.1,18.3,59.3,85,62.4,149.9c2.3,47.5-31.2,101.8-31.2,101.8l44.7-7.5c0,0,20.9-61.9,18.2-94.3
	c-5.2-62.3-52.4-152.1-52.4-152.1L2686.1,155.2z"/>
<path class="st8" d="M2243.2,234.1c-60.5,38.8-57.6,106.7-45,139.6s82.7,95.5,119.8,111.2c37.1,15.7,82.9,23.7,82.9,23.7
	l-105.3-261.9l-9.7-20.1C2285.9,226.6,2255.6,226.2,2243.2,234.1z"/>
<path class="st20" d="M2432.8,926.4c0,0-179.6,122.7-188.2,127.1c-8.6,4.4-38.1,15.7-38.1,15.7l-0.2-0.4l-24.5-50.4l-0.6-1.1
	c47.9-9.3,104.4-23.3,145.4-47.9c38.2-22.9,88.5-48.8,88.5-48.8L2432.8,926.4z"/>
<path class="st22" d="M2548.9,280.1c-36.3,63.5-38.6,122.4-52.2,136c-13.6,13.6-63.9,85-121,74.3c-27.3-5.1-57.5-47.1-80.8-83.3
	c-30.9-48-50.3-112.7-50.3-119.5c0-6.8,1.3-120.4,19.4-120.4c18.1,0,44.5,65.2,64.9,65.2c20.4,0,74.8-81.6,113.4-79.4
	c38.6,2.3,86.2,45.4,93,63.5S2548.9,280.1,2548.9,280.1z"/>
<g>
	<path class="st5" d="M2596,221.2c3.3-15.5-3.7-75.6-11-106.6c-2.1-8.7-5.6-18-10.5-27.4c-12.5-24-33.5-48.4-59.4-63.9
		c-25.6-15.3-142-30.1-172-8.6c-30,21.5-74.6,71.5-91.3,108.2c-16.9,37-18.6,69.1-24.1,113.9c-2.1,17.2,10.6,65.4,15,79.1
		c12,37.3,51.1,89,51.1,89s-23.1-48.5-14.3-79.1c8-27.6,30.7-71.6,43.2-70.1c1.3,0.2,2.6,0.8,3.6,2.1c11.1,13.1,32,30.3,47.9,42.9
		c15.8,12.6,64.9,26.6,64.9,26.6c20.4,2,83.4,13,113.4-3.8C2582.5,306.4,2592.7,236.7,2596,221.2z M2275.1,252.9
		c-2.6,5.8-21,59.1-30.5,34.7c-6-15.3-0.7-45.1,1.5-55.4c4.5-20.7,21.5-51.3,31.2-36.8C2292,217,2286.6,227.7,2275.1,252.9z"/>
</g>
<path class="st8" d="M2511.3,17.6c-25.8-14.9-142.4-27.9-172.1-6c-29.7,21.9-73.5,72.6-89.6,109.6c-16.3,37.2-17.5,69.4-22.4,114.3
	c-1.9,17.2,11.6,65.2,16.3,78.8c12.6,37.1,52.5,88.1,52.5,88.1s-23.8-48.1-15.5-78.8c7.5-27.8,29.6-72.1,42.2-70.8
	c1-23.6,7.1-128.9,39.5-173.1c36.6-50,112.3-59.5,164.4-33.4c17.6,8.8,33.1,22,45.3,34.3C2558.8,56.8,2537.4,32.7,2511.3,17.6z
	 M2275,251c-2.6,5.8-20.1,59.4-30,35.2c-6.2-15.3-1.4-45.1,0.7-55.4c4.2-20.8,20.7-51.6,30.7-37.3
	C2291.3,214.9,2286.1,225.6,2275,251z"/>
<path class="st8" d="M3078.4,457.2l-30.3,33l-8.3,2.1c0,0-149.7-77.8-176.3-90.9c-0.6-0.3-1.2-0.7-1.7-1.1
	c-8.2,6.3-19.3,8.3-29.5,4.8c-9.4-3.2-20.1-6.5-29-8.5c-4.2-0.9-8.9-1.3-14.1-0.9c-31.8,2.3-63.5,13.6-88.4,11.3
	c-19.4-1.8-22.4-14.8-34.6-13.8h0c-3.4,0.3-7.6,1.7-13,4.8c-3.5,2-7.5,4.6-11.8,7.6c-0.1,0-0.1,0.1-0.1,0.1h0
	c-6.6,4.6-13.8,10.1-20.9,15.8l-1.1-0.3c18.1-25.5,35.7-32.4,44.2-42.3c8.5-9.9,8.1-13.9,22.6-16c14.5-2-10.6-115.5,0-99.4
	c19,28.8,32.2,50.6,26.9,67.5s10.6,35.6,17.3,35c6.6-0.5-14.2-128.4,0-123.1c14.2,5.3,25,85.1,25,98.8c0,13.7,9.5,20.8,25.2,24.3
	s10.8-108.3,24.3-111.6c13.4-3.3-6.3,94,5.3,108.5c11.6,14.5,11.6,15.7,33.7,16c3.8,0,8.4-1.6,13.3-4.4
	c22.9-13.1,53.6-50.9,54.8-52.3c0,0,0,0,0,0s-20.3,61.3-16.1,67.7c4.2,6.4,67.1,12.9,104.5,29.2
	C3037.6,435.4,3078.4,457.2,3078.4,457.2z"/>
<path class="st6" d="M2393.6,884.6c18.5,10-24.1-137.9-18.7-174.5s24.5-30.3,24.5-67.5c0-19-8.9,35.5-40.3,28.2
	c-32.1-7.5,16.7-50.2,16.7-97c0-54-25,71.4-34.2,59.6c-4.1-5.1-81.3-133.5-77.8-112.5c4.4,26.2,35.5,82.5,45.1,99
	C2374.2,732.9,2376.3,875.3,2393.6,884.6z"/>
<path class="st6" d="M2444.8,958.5c24.1,10,116.1,45.4,133.2,51.9c-17.3-6.5-111.6-41-123.1-23.1c-12.7,19.7-54.2,21.5-113.3,43
	c-59.1,21.6,70.2-64.3,64-73s-50.5,22.1-141.4,0c-90.9-22.1,93.2-28.7,111.7-50.8c18.4-22.1-83.1-11.9-133.9-15.3
	c-50.8-3.4,64.4-20.4,107.3-14.7l26.6,8.6l25.9,16c0.7,5.2,4.4,13.9,13.5,19.6c4.5,2.9,10.3,5,17.7,5.7c1.7,0.2,3.2,0.4,4.4,0.8
	c4.1,1.2,5.4,3.3,5.3,6c-0.2,7.7-12.5,19.6-4.2,22.7C2439.6,956.3,2441.8,957.2,2444.8,958.5z"/>
<path class="st6" d="M2518,1126.1L2518,1126.1l-10.8,12.5c-15.1,0.8-82.3,3.1-160.1-14.9c-37.7-8.7-65.9-13.7-87.1-19.2h0
	c-28.6-7.4-44.4-15.7-53.5-35.3l-0.2-0.4c-3.2-6.9-12.1-25-24.5-50.4l-0.6-1.1c-9.6-19.6-21.2-43.4-33.9-69.8
	c-0.1-0.1-0.3-0.6-0.3-0.6c0,0,0-0.1,0-0.1c0,0,0,0,0,0c-22.6-46.7-55.7-104-84.1-159.8l-42.5-96c0,0,59.4,81.4,69.8,96.5
	c76,110.3,106.8,210.2,136.7,242.9c29.9,32.7,104.5,75.3,104.5,75.3L2518,1126.1z"/>
<path class="st6" d="M2341.5,819.5c-17.1-11.1-146.3,0.2-128.2-19.1C2231.4,781.2,2341.5,819.5,2341.5,819.5z"/>
<path class="st6" d="M2159.9,851c-13.1-50.1,25.7-88.7,22.2-93.2c-3.5-4.5-35.2,0-35.2,43.1s13.1,81.9,13.1,81.9V851z"/>
<path class="st6" d="M2492.7,626.8c50.2-50.3,52.1-114.9,58.4-118.2c6.3-3.3,26.5,18.8-8.2,67.9c-34.7,49.2-75.8,86.5-75.8,86.5
	L2492.7,626.8z"/>
<path class="st6" d="M1264.2,858.7c67.8-21.4,99.3-77.8,106.4-77.9c7.1,0,14.9,28.9-38.6,56.5S1224.8,879,1224.8,879L1264.2,858.7z"
	/>
<path class="st6" d="M2047.2,679.8c2.8,26.6,12.2,30.7,12.2,30.7s5.5-47.2,12.8-67.6C2079.5,622.5,2044.5,653.2,2047.2,679.8z"/>
<path class="st6" d="M2202,615.1c0,7-6.1,15.2-14.9,23.9c-23.2,22.9-65.7,49.8-69,71.5c-4.5,29.9,0.1,56.7,11.3,66.2
	c11.2,9.4,4.5-43.2,13.1-74.9s70.9-53.1,70.9-68.5C2213.3,618,2202,615.1,2202,615.1z"/>
<path class="st8" d="M2187.1,280.4l-8,38.5c-33.8,29.3-116.8,127-132,149.6c-15.2,22.6-44.7,82.1-76.5,153.2
	c-31.7,71.2-61.2,123.3-77.1,132.4c-15.9,9.1-40.8,48.1-40.8,72.8c0,13.2-12.5,28.3-24.1,39.6c-10.4-7.8-16.7-12.6-16.7-12.6
	s-13.1-45.7,13.9-51.2c26.9-5.5,15.6-12.3,31.5-41.8c15.9-29.5,56.7-49.9,83.9-122.4c27.2-72.6,42.2-75.9,65.8-131.5
	C2030.1,452.2,2161,288.3,2187.1,280.4z"/>
<path class="st8" d="M2372,1497.8l-34-16.8c0,0-9.1-58-83.9-83c-74.8-24.9-165.6-141.3-165.6-141.3s-13.6,28-24.9,68.4
	c-11.3,40.5-52.2,48-52.2,57c0,9.1-9.1,68-22.7,98.9c-13.6,30.8-31.8,87.1-31.8,87.1s-6.7-3.3-15.8-8.1l-3.2-26
	c21.3-51-24.1-90.2,5.4-92.7c29.5-2.5,62.4,30.7,54.5-9.7c-8-40.4-45.4-116-14.8-103.7c30.6,12.3,66.7,35.4,64,0
	c-2.8-35.3,28.9-45.9,13.1-71.2c-15.8-25.3-134.9-49.7-83.9-52.8c51-3.1,101.3,43.9,122.1,39.1c20.8-4.8,107.8-53.3,128.9-39.3
	c21.1,14-75.2,16.9-71.3,39.3c3.9,22.4,1,72.9,34.8,78.3c33.8,5.3,127.1-22.6,117.9,6.7c-9.3,29.3-61.9,12.3-32.2,42.9
	c29.7,30.6,79.4,63.5,79.4,63.5c-0.3,11,1.1,21.4,4.8,30.1C2374.3,1496.9,2372,1497.8,2372,1497.8z"/>
<path class="st8" d="M2716.5,1235c-10.5,21.1-33.8,45.1-33.8,45.1l-0.1,0l-41.5-19.5c-14.6-8.8-28.1-20.1-31-32.6
	c-6.8-29.5-93-36.1-90.7-57.8c1.4-13.1-0.1-31.6-1.4-44.2c77.4,16.9,186.7,65.6,201,83.8C2723.6,1215.7,2721.4,1225,2716.5,1235z"/>
<path class="st20" d="M1522.6,1639.5c0,0,18.3,82.3,45.5,116.8c27.2,34.6,90.3,74.6,90.3,74.6l-19.9,16.7c0,0-68.6-29.6-101-73.8
	c-19.4-26.5-41.5-111.2-41.5-111.2L1522.6,1639.5z"/>
<path class="st29" d="M2844.5,2210.7c-2.9,6.9-31.3,9.4-84.6-11.5c-53.3-20.9-84.5-35.6-88.4-44.5c-1.1-2.6-2.5-9.1-3.8-17
	c4.3,4.1,9.9,9.2,14.5,12.3c16.8,11.4,90.1,42.3,106.3,44.8c16.2,2.5,32.3,8.5,40,6.8c3.9-0.9,9.9-6.5,15-11.9
	C2845.7,2199.5,2846.6,2205.6,2844.5,2210.7z"/>
<path class="st15" d="M1815.4,1541.1c0,0,893,699,926.5,721.1c25.2,16.7,195,20.4,213.2,27.2c18.1,6.8,43.1,43.1,49.9,59
	c6.8,15.9,30.9,49.6,0,43.1c-40.4-8.5-54-5.3-131.9-25.7c-55.9-14.7-97.2-33.3-124.4-44.6s-943.1-739.4-943.1-739.4L1815.4,1541.1z"
	/>
<path class="st30" d="M2450.7,359.5c-5,13.3-7.5,34.5-9.4,47.1c-0.7,4.6-1.3,8.1-1.9,9.6c-2.3,5.7-10.2,11.3-15.9,11.3
	c-5.7,0-10.2-5.7-15.9-7.9c-5.7-2.3-19.3-4.5-15.9-12.5c3.4-7.9,0,2.3,9.1,2.3s6.1,7.6,20.1,10.2c14,2.6,24.1-60.1,24.1-60.1H2450.7
	z"/>
<path class="st3" d="M2463.2,347c11.3-5.7,36.3-9.1,40.8-6.8c4.5,2.3,0,6.8,0,6.8l-40.8,5.7V347z"/>
<path class="st3" d="M2420.9,339.5c-1.8,5.7-17.8-16.3-29.7-23.1c-11.9-6.8-40.3-6.8-36.9-9.1s42,2.3,53.3,9.1
	C2418.9,323.2,2422.9,333.1,2420.9,339.5z"/>
<path class="st3" d="M2463.2,367.4c0.3-0.2,2.8,0.1,3.4,0.1c3.7,0.2,10.2,4,18,1.1c9.2-3.4,11.3-3.1,11.3-3.1s-14.2,0.5-19.9,0
	c-5.7-0.5-12.9-1.8-12.9,0C2463.2,367.4,2463.2,367.4,2463.2,367.4z"/>
<path class="st3" d="M2408.3,356.3c-2.3,0-7.1-0.6-14.3-1.7c-7.2-1.1-15.5-4.9-18.1-8.5c-2.6-3.6-9.2-11.2-9.2-11.2
	s11.8,8,18.2,11.2c6.4,3.2,25,8.7,25,9C2409.9,357.3,2408.3,356.3,2408.3,356.3z"/>
<path class="st3" d="M2470.6,368.2c0.1,2.7-0.2,5.1,4.3,5.5s3.3,0.6,5.2-1.3c1.9-1.9,1.8-4.2,1.8-4.2H2470.6z"/>
<path class="st3" d="M2383,351.2c1.2,0.5,2.5,5.1,4.7,6.3c4,2.2,8.5,2,9.7,0.5s3-5.3,3-5.3l-15.5-1.5H2383z"/>
<path class="st30" d="M2369,446.6c4.5-0.4,23.8,6,31.4,8.7c7.6,2.6,13.4,4.9,15.9,5.7c2.5,0.8-3.8-6.1-6.8-7.9s-14.7-6.4-14.7-6.4
	h-28c0,0,12.9,10,16.6,12.9c3.8,3,15.9,6.4,20,6c4.2-0.4,12.9-4.5,12.9-4.5L2369,446.6z"/>
<g class="st25">
	<path class="st26" d="M2578.7,299.1c-19.6,48.7-36.1,85.7-58.9,104.5c-28.5,23.5-102.6,27.7-137.9,8.3s-89.6-51.7-91-84.2
		s23-93.2,37.4-80.5c14.4,12.7,49,62.3,91.4,77c61.4,21.2,108.9,25.7,123.3,11.2s39.1-53.5,39.1-53.5S2580.3,295.1,2578.7,299.1z"/>
</g>
</svg>
